# Blender v2.80 (sub 75) OBJ File: ''
# www.blender.org
mtllib Arrow.mtl
o Cube.001
v -0.200000 0.200000 0.285714
v 0.200000 0.200000 0.285714
v 0.200000 0.200000 -0.714286
v -0.200000 0.200000 -0.714286
v -0.200000 -0.200000 -0.714286
v 0.200000 -0.200000 -0.714286
v 0.200000 -0.200000 0.285714
v -0.200000 -0.200000 0.285714
v 1.000000 0.200000 0.285714
v 1.000000 -0.200000 0.285714
v -0.000000 0.200000 1.285714
v -0.000000 -0.200000 1.285715
v -1.000000 -0.200000 0.285714
v -1.000000 0.200000 0.285714
vt 0.375000 0.000000
vt 0.625000 0.000000
vt 0.625000 0.250000
vt 0.375000 0.250000
vt 0.375000 0.250000
vt 0.625000 0.250000
vt 0.625000 0.500000
vt 0.375000 0.500000
vt 0.625000 0.750000
vt 0.375000 0.750000
vt 0.625000 0.750000
vt 0.625000 1.000000
vt 0.375000 1.000000
vt 0.125000 0.500000
vt 0.375000 0.500000
vt 0.375000 0.750000
vt 0.125000 0.750000
vt 0.625000 0.750000
vt 0.375000 0.750000
vt 0.625000 0.750000
vt 0.375000 0.750000
vt 0.625000 0.750000
vt 0.375000 0.000000
vt 0.625000 0.000000
vt 0.125000 0.500000
vt 0.375000 0.500000
vt 0.625000 0.750000
vt 0.625000 0.000000
vt 0.125000 0.500000
vt 0.375000 0.500000
vn 0.0000 1.0000 -0.0000
vn 0.0000 -0.0000 -1.0000
vn 1.0000 -0.0000 0.0000
vn -0.0000 -1.0000 0.0000
vn -1.0000 0.0000 -0.0000
vn 0.7071 0.0000 0.7071
vn 0.0000 0.0000 1.0000
vn -0.7071 0.0000 0.7071
usemtl Material.001
s 1
f 1/1/1 2/2/1 3/3/1 4/4/1
f 5/5/2 4/6/2 3/7/2 6/8/2
f 6/8/3 3/7/3 2/9/3 7/10/3
f 7/10/4 8/11/4 5/12/4 6/13/4
f 8/14/5 1/15/5 4/16/5 5/17/5
f 7/10/2 2/9/2 9/18/2 10/19/2
f 10/19/6 9/18/6 11/20/6 12/21/6
f 8/11/7 7/10/7 10/19/7 13/22/7
f 2/2/4 1/1/4 14/23/4 9/24/4
f 1/15/2 8/14/2 13/25/2 14/26/2
f 13/22/4 10/19/4 12/27/4
f 9/24/1 14/23/1 11/28/1
f 14/26/8 13/25/8 12/29/8 11/30/8
